<mxfile host="Electron" modified="2024-04-08T22:55:04.405Z" agent="Mozilla/5.0 (Windows NT 10.0; Win64; x64) AppleWebKit/537.36 (KHTML, like Gecko) draw.io/24.1.0 Chrome/120.0.6099.109 Electron/28.1.0 Safari/537.36" etag="kkZ6UutedmUwpi0lkxXE" version="24.1.0" type="device" pages="2">
  <diagram name="app-schema" id="NzUNRYjndF2BQ49UQh6H">
    <mxGraphModel dx="989" dy="589" grid="1" gridSize="10" guides="1" tooltips="1" connect="1" arrows="1" fold="1" page="1" pageScale="1" pageWidth="850" pageHeight="1100" math="0" shadow="0">
      <root>
        <mxCell id="0" />
        <mxCell id="1" parent="0" />
        <mxCell id="1lUA_ovtTKg_NUOKKDvo-15" value="Google Cloud Platform" style="rounded=1;whiteSpace=wrap;html=1;verticalAlign=top;" vertex="1" parent="1">
          <mxGeometry x="20" y="140" width="360" height="150" as="geometry" />
        </mxCell>
        <mxCell id="1lUA_ovtTKg_NUOKKDvo-7" value="" style="group" vertex="1" connectable="0" parent="1">
          <mxGeometry x="430" y="140" width="360" height="210" as="geometry" />
        </mxCell>
        <mxCell id="1lUA_ovtTKg_NUOKKDvo-6" value="Torres San Sebastian App" style="rounded=1;whiteSpace=wrap;html=1;verticalAlign=top;movable=1;resizable=1;rotatable=1;deletable=1;editable=1;locked=0;connectable=1;" vertex="1" parent="1lUA_ovtTKg_NUOKKDvo-7">
          <mxGeometry width="360" height="210" as="geometry" />
        </mxCell>
        <mxCell id="1lUA_ovtTKg_NUOKKDvo-1" value="app" style="rounded=0;whiteSpace=wrap;html=1;movable=1;resizable=1;rotatable=1;deletable=1;editable=1;locked=0;connectable=1;" vertex="1" parent="1lUA_ovtTKg_NUOKKDvo-7">
          <mxGeometry x="67" y="30" width="250" height="50" as="geometry" />
        </mxCell>
        <mxCell id="1lUA_ovtTKg_NUOKKDvo-2" value="&lt;div&gt;&amp;lt;&amp;lt;Module&amp;gt;&amp;gt;&lt;/div&gt;about it" style="rounded=0;whiteSpace=wrap;html=1;movable=1;resizable=1;rotatable=1;deletable=1;editable=1;locked=0;connectable=1;" vertex="1" parent="1lUA_ovtTKg_NUOKKDvo-7">
          <mxGeometry x="67" y="90" width="120" height="50" as="geometry" />
        </mxCell>
        <mxCell id="1lUA_ovtTKg_NUOKKDvo-3" value="&lt;div&gt;&amp;lt;&amp;lt;Module&amp;gt;&amp;gt;&lt;/div&gt;UI" style="rounded=0;whiteSpace=wrap;html=1;rotation=0;movable=1;resizable=1;rotatable=1;deletable=1;editable=1;locked=0;connectable=1;" vertex="1" parent="1lUA_ovtTKg_NUOKKDvo-7">
          <mxGeometry x="67" y="150" width="250" height="50" as="geometry" />
        </mxCell>
        <mxCell id="1lUA_ovtTKg_NUOKKDvo-4" value="&lt;div&gt;&amp;lt;&amp;lt;Module&amp;gt;&amp;gt;&lt;/div&gt;schedule" style="rounded=0;whiteSpace=wrap;html=1;movable=1;resizable=1;rotatable=1;deletable=1;editable=1;locked=0;connectable=1;" vertex="1" parent="1lUA_ovtTKg_NUOKKDvo-7">
          <mxGeometry x="197" y="90" width="120" height="50" as="geometry" />
        </mxCell>
        <mxCell id="1lUA_ovtTKg_NUOKKDvo-5" value="&lt;div&gt;&amp;lt;&amp;lt;Module&amp;gt;&amp;gt;&lt;/div&gt;core" style="rounded=0;whiteSpace=wrap;html=1;rotation=-90;movable=1;resizable=1;rotatable=1;deletable=1;editable=1;locked=0;connectable=1;" vertex="1" parent="1lUA_ovtTKg_NUOKKDvo-7">
          <mxGeometry x="-20" y="63" width="110" height="40" as="geometry" />
        </mxCell>
        <mxCell id="1lUA_ovtTKg_NUOKKDvo-13" style="edgeStyle=orthogonalEdgeStyle;rounded=0;orthogonalLoop=1;jettySize=auto;html=1;exitX=0;exitY=0.5;exitDx=0;exitDy=0;entryX=1;entryY=0.5;entryDx=0;entryDy=0;" edge="1" parent="1" source="1lUA_ovtTKg_NUOKKDvo-9" target="1lUA_ovtTKg_NUOKKDvo-11">
          <mxGeometry relative="1" as="geometry" />
        </mxCell>
        <mxCell id="1lUA_ovtTKg_NUOKKDvo-14" value="Folder&lt;div&gt;access&lt;/div&gt;" style="edgeLabel;html=1;align=center;verticalAlign=middle;resizable=0;points=[];" vertex="1" connectable="0" parent="1lUA_ovtTKg_NUOKKDvo-13">
          <mxGeometry x="-0.1689" relative="1" as="geometry">
            <mxPoint y="-15" as="offset" />
          </mxGeometry>
        </mxCell>
        <mxCell id="1lUA_ovtTKg_NUOKKDvo-9" value="GoogleApi" style="html=1;dropTarget=0;whiteSpace=wrap;" vertex="1" parent="1">
          <mxGeometry x="180" y="180" width="180" height="90" as="geometry" />
        </mxCell>
        <mxCell id="1lUA_ovtTKg_NUOKKDvo-10" value="" style="shape=module;jettyWidth=8;jettyHeight=4;" vertex="1" parent="1lUA_ovtTKg_NUOKKDvo-9">
          <mxGeometry x="1" width="20" height="20" relative="1" as="geometry">
            <mxPoint x="-27" y="7" as="offset" />
          </mxGeometry>
        </mxCell>
        <mxCell id="1lUA_ovtTKg_NUOKKDvo-11" value="Google Drive" style="shape=module;align=left;spacingLeft=20;align=center;verticalAlign=middle;whiteSpace=wrap;html=1;" vertex="1" parent="1">
          <mxGeometry x="30" y="200" width="100" height="50" as="geometry" />
        </mxCell>
        <mxCell id="1lUA_ovtTKg_NUOKKDvo-12" style="edgeStyle=orthogonalEdgeStyle;rounded=0;orthogonalLoop=1;jettySize=auto;html=1;exitX=0.5;exitY=0;exitDx=0;exitDy=0;entryX=1;entryY=0.5;entryDx=0;entryDy=0;" edge="1" parent="1" source="1lUA_ovtTKg_NUOKKDvo-5" target="1lUA_ovtTKg_NUOKKDvo-9">
          <mxGeometry relative="1" as="geometry" />
        </mxCell>
      </root>
    </mxGraphModel>
  </diagram>
  <diagram id="ndCfoLnf9vyeeQPcjk3s" name="votations-user-case">
    <mxGraphModel dx="4097" dy="2440" grid="1" gridSize="10" guides="1" tooltips="1" connect="1" arrows="1" fold="1" page="1" pageScale="1" pageWidth="850" pageHeight="1100" math="0" shadow="0">
      <root>
        <mxCell id="0" />
        <mxCell id="1" parent="0" />
        <mxCell id="XbBElfE76qs7gnHoQPAj-17" value="Casos de Usos" style="rounded=0;whiteSpace=wrap;html=1;verticalAlign=top;" vertex="1" parent="1">
          <mxGeometry x="220" y="40" width="250" height="1280" as="geometry" />
        </mxCell>
        <mxCell id="PwS-6lWL2g70Cj9rQYqT-5" style="edgeStyle=orthogonalEdgeStyle;rounded=0;orthogonalLoop=1;jettySize=auto;html=1;exitX=1;exitY=0.3333333333333333;exitDx=0;exitDy=0;exitPerimeter=0;entryX=0;entryY=0.5;entryDx=0;entryDy=0;curved=1;" edge="1" parent="1" source="PwS-6lWL2g70Cj9rQYqT-1" target="PwS-6lWL2g70Cj9rQYqT-2">
          <mxGeometry relative="1" as="geometry" />
        </mxCell>
        <mxCell id="PwS-6lWL2g70Cj9rQYqT-1" value="Asistente" style="shape=umlActor;verticalLabelPosition=bottom;verticalAlign=top;html=1;" vertex="1" parent="1">
          <mxGeometry x="110" y="110" width="30" height="60" as="geometry" />
        </mxCell>
        <mxCell id="PwS-6lWL2g70Cj9rQYqT-6" style="edgeStyle=orthogonalEdgeStyle;rounded=0;orthogonalLoop=1;jettySize=auto;html=1;exitX=0.5;exitY=1;exitDx=0;exitDy=0;entryX=0.5;entryY=0;entryDx=0;entryDy=0;curved=1;" edge="1" parent="1" source="PwS-6lWL2g70Cj9rQYqT-2" target="PwS-6lWL2g70Cj9rQYqT-4">
          <mxGeometry relative="1" as="geometry" />
        </mxCell>
        <mxCell id="PwS-6lWL2g70Cj9rQYqT-2" value="Registrar Device VotaciÃ³n" style="ellipse;whiteSpace=wrap;html=1;" vertex="1" parent="1">
          <mxGeometry x="250" y="105" width="140" height="70" as="geometry" />
        </mxCell>
        <mxCell id="PwS-6lWL2g70Cj9rQYqT-4" value="Asignar Apartamento a device" style="ellipse;whiteSpace=wrap;html=1;" vertex="1" parent="1">
          <mxGeometry x="300" y="210" width="140" height="70" as="geometry" />
        </mxCell>
        <mxCell id="PwS-6lWL2g70Cj9rQYqT-7" value="Device - apt" style="strokeWidth=2;html=1;shape=mxgraph.flowchart.database;whiteSpace=wrap;" vertex="1" parent="1">
          <mxGeometry x="570" y="130" width="90" height="60" as="geometry" />
        </mxCell>
        <mxCell id="PwS-6lWL2g70Cj9rQYqT-8" style="edgeStyle=orthogonalEdgeStyle;rounded=0;orthogonalLoop=1;jettySize=auto;html=1;exitX=1;exitY=0.5;exitDx=0;exitDy=0;entryX=0;entryY=0.5;entryDx=0;entryDy=0;entryPerimeter=0;" edge="1" parent="1" source="PwS-6lWL2g70Cj9rQYqT-4" target="PwS-6lWL2g70Cj9rQYqT-7">
          <mxGeometry relative="1" as="geometry" />
        </mxCell>
        <mxCell id="PwS-6lWL2g70Cj9rQYqT-9" style="edgeStyle=orthogonalEdgeStyle;rounded=0;orthogonalLoop=1;jettySize=auto;html=1;exitX=1;exitY=0.5;exitDx=0;exitDy=0;entryX=0;entryY=0.5;entryDx=0;entryDy=0;entryPerimeter=0;" edge="1" parent="1" source="PwS-6lWL2g70Cj9rQYqT-2" target="PwS-6lWL2g70Cj9rQYqT-7">
          <mxGeometry relative="1" as="geometry">
            <Array as="points">
              <mxPoint x="500" y="140" />
              <mxPoint x="500" y="160" />
            </Array>
          </mxGeometry>
        </mxCell>
        <mxCell id="PwS-6lWL2g70Cj9rQYqT-12" style="edgeStyle=orthogonalEdgeStyle;rounded=0;orthogonalLoop=1;jettySize=auto;html=1;exitX=1;exitY=0.3333333333333333;exitDx=0;exitDy=0;exitPerimeter=0;entryX=0;entryY=0.5;entryDx=0;entryDy=0;curved=1;" edge="1" parent="1" source="PwS-6lWL2g70Cj9rQYqT-10" target="PwS-6lWL2g70Cj9rQYqT-11">
          <mxGeometry relative="1" as="geometry" />
        </mxCell>
        <mxCell id="PwS-6lWL2g70Cj9rQYqT-19" style="edgeStyle=orthogonalEdgeStyle;rounded=0;orthogonalLoop=1;jettySize=auto;html=1;exitX=1;exitY=0.3333333333333333;exitDx=0;exitDy=0;exitPerimeter=0;entryX=0;entryY=0.5;entryDx=0;entryDy=0;curved=1;" edge="1" parent="1" source="PwS-6lWL2g70Cj9rQYqT-10" target="PwS-6lWL2g70Cj9rQYqT-17">
          <mxGeometry relative="1" as="geometry" />
        </mxCell>
        <mxCell id="PwS-6lWL2g70Cj9rQYqT-28" style="edgeStyle=orthogonalEdgeStyle;rounded=0;orthogonalLoop=1;jettySize=auto;html=1;exitX=1;exitY=0.3333333333333333;exitDx=0;exitDy=0;exitPerimeter=0;entryX=0;entryY=0.5;entryDx=0;entryDy=0;curved=1;" edge="1" parent="1" source="PwS-6lWL2g70Cj9rQYqT-10" target="PwS-6lWL2g70Cj9rQYqT-24">
          <mxGeometry relative="1" as="geometry" />
        </mxCell>
        <mxCell id="PwS-6lWL2g70Cj9rQYqT-29" style="edgeStyle=orthogonalEdgeStyle;rounded=0;orthogonalLoop=1;jettySize=auto;html=1;exitX=1;exitY=0.3333333333333333;exitDx=0;exitDy=0;exitPerimeter=0;entryX=0;entryY=0.5;entryDx=0;entryDy=0;curved=1;" edge="1" parent="1" source="PwS-6lWL2g70Cj9rQYqT-10" target="PwS-6lWL2g70Cj9rQYqT-25">
          <mxGeometry relative="1" as="geometry" />
        </mxCell>
        <mxCell id="PwS-6lWL2g70Cj9rQYqT-32" style="edgeStyle=orthogonalEdgeStyle;rounded=0;orthogonalLoop=1;jettySize=auto;html=1;exitX=1;exitY=0.3333333333333333;exitDx=0;exitDy=0;exitPerimeter=0;entryX=0;entryY=0.5;entryDx=0;entryDy=0;curved=1;" edge="1" parent="1" source="PwS-6lWL2g70Cj9rQYqT-10" target="PwS-6lWL2g70Cj9rQYqT-30">
          <mxGeometry relative="1" as="geometry" />
        </mxCell>
        <mxCell id="XbBElfE76qs7gnHoQPAj-3" style="edgeStyle=orthogonalEdgeStyle;rounded=0;orthogonalLoop=1;jettySize=auto;html=1;exitX=1;exitY=0.3333333333333333;exitDx=0;exitDy=0;exitPerimeter=0;entryX=0;entryY=0.5;entryDx=0;entryDy=0;curved=1;" edge="1" parent="1" source="PwS-6lWL2g70Cj9rQYqT-10" target="XbBElfE76qs7gnHoQPAj-1">
          <mxGeometry relative="1" as="geometry" />
        </mxCell>
        <mxCell id="PwS-6lWL2g70Cj9rQYqT-10" value="Administrador" style="shape=umlActor;verticalLabelPosition=bottom;verticalAlign=top;html=1;" vertex="1" parent="1">
          <mxGeometry x="100" y="300" width="30" height="60" as="geometry" />
        </mxCell>
        <mxCell id="PwS-6lWL2g70Cj9rQYqT-11" value="Agregar pregunta votaciÃ³n" style="ellipse;whiteSpace=wrap;html=1;" vertex="1" parent="1">
          <mxGeometry x="250" y="310" width="140" height="70" as="geometry" />
        </mxCell>
        <mxCell id="PwS-6lWL2g70Cj9rQYqT-13" value="questions" style="strokeWidth=2;html=1;shape=mxgraph.flowchart.database;whiteSpace=wrap;" vertex="1" parent="1">
          <mxGeometry x="560" y="315" width="90" height="60" as="geometry" />
        </mxCell>
        <mxCell id="PwS-6lWL2g70Cj9rQYqT-14" style="edgeStyle=orthogonalEdgeStyle;rounded=0;orthogonalLoop=1;jettySize=auto;html=1;exitX=1;exitY=0.5;exitDx=0;exitDy=0;entryX=0;entryY=0.5;entryDx=0;entryDy=0;entryPerimeter=0;" edge="1" parent="1" source="PwS-6lWL2g70Cj9rQYqT-11" target="PwS-6lWL2g70Cj9rQYqT-13">
          <mxGeometry relative="1" as="geometry" />
        </mxCell>
        <mxCell id="PwS-6lWL2g70Cj9rQYqT-23" style="edgeStyle=orthogonalEdgeStyle;rounded=0;orthogonalLoop=1;jettySize=auto;html=1;exitX=1;exitY=0.5;exitDx=0;exitDy=0;entryX=0;entryY=0.5;entryDx=0;entryDy=0;" edge="1" parent="1" source="PwS-6lWL2g70Cj9rQYqT-15" target="PwS-6lWL2g70Cj9rQYqT-16">
          <mxGeometry relative="1" as="geometry" />
        </mxCell>
        <mxCell id="PwS-6lWL2g70Cj9rQYqT-15" value="&lt;br&gt;&lt;b&gt;Publisher&lt;/b&gt;" style="html=1;whiteSpace=wrap;" vertex="1" parent="1">
          <mxGeometry x="70" y="870" width="110" height="50" as="geometry" />
        </mxCell>
        <mxCell id="PwS-6lWL2g70Cj9rQYqT-16" value="notificaciÃ³n pregunta" style="ellipse;whiteSpace=wrap;html=1;" vertex="1" parent="1">
          <mxGeometry x="260" y="860" width="140" height="70" as="geometry" />
        </mxCell>
        <mxCell id="PwS-6lWL2g70Cj9rQYqT-17" value="Activar Pregunta" style="ellipse;whiteSpace=wrap;html=1;" vertex="1" parent="1">
          <mxGeometry x="260" y="410" width="140" height="70" as="geometry" />
        </mxCell>
        <mxCell id="PwS-6lWL2g70Cj9rQYqT-20" style="edgeStyle=orthogonalEdgeStyle;rounded=0;orthogonalLoop=1;jettySize=auto;html=1;exitX=1;exitY=0.5;exitDx=0;exitDy=0;entryX=0;entryY=0.5;entryDx=0;entryDy=0;entryPerimeter=0;" edge="1" parent="1" source="PwS-6lWL2g70Cj9rQYqT-17" target="PwS-6lWL2g70Cj9rQYqT-13">
          <mxGeometry relative="1" as="geometry">
            <Array as="points">
              <mxPoint x="510" y="445" />
              <mxPoint x="510" y="345" />
            </Array>
          </mxGeometry>
        </mxCell>
        <mxCell id="PwS-6lWL2g70Cj9rQYqT-21" value="" style="verticalLabelPosition=bottom;verticalAlign=top;html=1;shadow=0;dashed=0;strokeWidth=1;shape=mxgraph.android.phone2;strokeColor=#c0c0c0;" vertex="1" parent="1">
          <mxGeometry x="585" y="840" width="60" height="110" as="geometry" />
        </mxCell>
        <mxCell id="PwS-6lWL2g70Cj9rQYqT-22" style="edgeStyle=orthogonalEdgeStyle;rounded=0;orthogonalLoop=1;jettySize=auto;html=1;exitX=1;exitY=0.5;exitDx=0;exitDy=0;entryX=0.083;entryY=0.5;entryDx=0;entryDy=0;entryPerimeter=0;" edge="1" parent="1" source="PwS-6lWL2g70Cj9rQYqT-16" target="PwS-6lWL2g70Cj9rQYqT-21">
          <mxGeometry relative="1" as="geometry" />
        </mxCell>
        <mxCell id="PwS-6lWL2g70Cj9rQYqT-24" value="Editar Pregunta" style="ellipse;whiteSpace=wrap;html=1;" vertex="1" parent="1">
          <mxGeometry x="250" y="490" width="140" height="70" as="geometry" />
        </mxCell>
        <mxCell id="PwS-6lWL2g70Cj9rQYqT-25" value="Eliminar Pregunta" style="ellipse;whiteSpace=wrap;html=1;" vertex="1" parent="1">
          <mxGeometry x="250" y="580" width="140" height="70" as="geometry" />
        </mxCell>
        <mxCell id="PwS-6lWL2g70Cj9rQYqT-26" style="edgeStyle=orthogonalEdgeStyle;rounded=0;orthogonalLoop=1;jettySize=auto;html=1;exitX=1;exitY=0.5;exitDx=0;exitDy=0;entryX=0;entryY=0.5;entryDx=0;entryDy=0;entryPerimeter=0;" edge="1" parent="1" source="PwS-6lWL2g70Cj9rQYqT-24" target="PwS-6lWL2g70Cj9rQYqT-13">
          <mxGeometry relative="1" as="geometry">
            <Array as="points">
              <mxPoint x="510" y="525" />
              <mxPoint x="510" y="345" />
            </Array>
          </mxGeometry>
        </mxCell>
        <mxCell id="PwS-6lWL2g70Cj9rQYqT-27" style="edgeStyle=orthogonalEdgeStyle;rounded=0;orthogonalLoop=1;jettySize=auto;html=1;exitX=1;exitY=0.5;exitDx=0;exitDy=0;entryX=0;entryY=0.5;entryDx=0;entryDy=0;entryPerimeter=0;" edge="1" parent="1" source="PwS-6lWL2g70Cj9rQYqT-25" target="PwS-6lWL2g70Cj9rQYqT-13">
          <mxGeometry relative="1" as="geometry">
            <Array as="points">
              <mxPoint x="510" y="615" />
              <mxPoint x="510" y="345" />
            </Array>
          </mxGeometry>
        </mxCell>
        <mxCell id="PwS-6lWL2g70Cj9rQYqT-30" value="Desactivar Pregunta" style="ellipse;whiteSpace=wrap;html=1;" vertex="1" parent="1">
          <mxGeometry x="250" y="660" width="140" height="70" as="geometry" />
        </mxCell>
        <mxCell id="PwS-6lWL2g70Cj9rQYqT-31" style="edgeStyle=orthogonalEdgeStyle;rounded=0;orthogonalLoop=1;jettySize=auto;html=1;exitX=1;exitY=0.5;exitDx=0;exitDy=0;entryX=0;entryY=0.5;entryDx=0;entryDy=0;entryPerimeter=0;" edge="1" parent="1" source="PwS-6lWL2g70Cj9rQYqT-30" target="PwS-6lWL2g70Cj9rQYqT-13">
          <mxGeometry relative="1" as="geometry">
            <Array as="points">
              <mxPoint x="510" y="695" />
              <mxPoint x="510" y="345" />
            </Array>
          </mxGeometry>
        </mxCell>
        <mxCell id="PwS-6lWL2g70Cj9rQYqT-35" style="edgeStyle=orthogonalEdgeStyle;rounded=0;orthogonalLoop=1;jettySize=auto;html=1;exitX=1;exitY=0.3333333333333333;exitDx=0;exitDy=0;exitPerimeter=0;entryX=0;entryY=0.5;entryDx=0;entryDy=0;curved=1;" edge="1" parent="1" source="PwS-6lWL2g70Cj9rQYqT-33" target="PwS-6lWL2g70Cj9rQYqT-34">
          <mxGeometry relative="1" as="geometry" />
        </mxCell>
        <mxCell id="PwS-6lWL2g70Cj9rQYqT-33" value="usurio" style="shape=umlActor;verticalLabelPosition=bottom;verticalAlign=top;html=1;" vertex="1" parent="1">
          <mxGeometry x="100" y="990" width="30" height="60" as="geometry" />
        </mxCell>
        <mxCell id="PwS-6lWL2g70Cj9rQYqT-34" value="Responder pregunta" style="ellipse;whiteSpace=wrap;html=1;" vertex="1" parent="1">
          <mxGeometry x="260" y="980" width="140" height="70" as="geometry" />
        </mxCell>
        <mxCell id="PwS-6lWL2g70Cj9rQYqT-36" value="respuestas" style="strokeWidth=2;html=1;shape=mxgraph.flowchart.database;whiteSpace=wrap;" vertex="1" parent="1">
          <mxGeometry x="570" y="985" width="90" height="60" as="geometry" />
        </mxCell>
        <mxCell id="PwS-6lWL2g70Cj9rQYqT-37" style="edgeStyle=orthogonalEdgeStyle;rounded=0;orthogonalLoop=1;jettySize=auto;html=1;exitX=1;exitY=0.5;exitDx=0;exitDy=0;entryX=0;entryY=0.5;entryDx=0;entryDy=0;entryPerimeter=0;" edge="1" parent="1" source="PwS-6lWL2g70Cj9rQYqT-34" target="PwS-6lWL2g70Cj9rQYqT-36">
          <mxGeometry relative="1" as="geometry" />
        </mxCell>
        <mxCell id="XbBElfE76qs7gnHoQPAj-1" value="Cerrar VotaciÃ³n" style="ellipse;whiteSpace=wrap;html=1;" vertex="1" parent="1">
          <mxGeometry x="250" y="740" width="140" height="70" as="geometry" />
        </mxCell>
        <mxCell id="XbBElfE76qs7gnHoQPAj-2" style="edgeStyle=orthogonalEdgeStyle;rounded=0;orthogonalLoop=1;jettySize=auto;html=1;exitX=1;exitY=0.5;exitDx=0;exitDy=0;entryX=0;entryY=0.5;entryDx=0;entryDy=0;entryPerimeter=0;" edge="1" parent="1" source="XbBElfE76qs7gnHoQPAj-1" target="PwS-6lWL2g70Cj9rQYqT-13">
          <mxGeometry relative="1" as="geometry">
            <Array as="points">
              <mxPoint x="510" y="775" />
              <mxPoint x="510" y="345" />
            </Array>
          </mxGeometry>
        </mxCell>
        <mxCell id="XbBElfE76qs7gnHoQPAj-10" style="edgeStyle=orthogonalEdgeStyle;rounded=0;orthogonalLoop=1;jettySize=auto;html=1;exitX=1;exitY=0.5;exitDx=0;exitDy=0;entryX=0;entryY=0.5;entryDx=0;entryDy=0;curved=1;" edge="1" parent="1" source="XbBElfE76qs7gnHoQPAj-7" target="XbBElfE76qs7gnHoQPAj-8">
          <mxGeometry relative="1" as="geometry" />
        </mxCell>
        <mxCell id="XbBElfE76qs7gnHoQPAj-14" style="edgeStyle=orthogonalEdgeStyle;rounded=0;orthogonalLoop=1;jettySize=auto;html=1;exitX=1;exitY=0.5;exitDx=0;exitDy=0;entryX=0;entryY=0.5;entryDx=0;entryDy=0;curved=1;" edge="1" parent="1" source="XbBElfE76qs7gnHoQPAj-7" target="XbBElfE76qs7gnHoQPAj-13">
          <mxGeometry relative="1" as="geometry" />
        </mxCell>
        <mxCell id="XbBElfE76qs7gnHoQPAj-7" value="Module&lt;div&gt;Resultados&lt;/div&gt;" style="shape=module;align=left;spacingLeft=20;align=center;verticalAlign=top;whiteSpace=wrap;html=1;" vertex="1" parent="1">
          <mxGeometry x="80" y="1120" width="100" height="50" as="geometry" />
        </mxCell>
        <mxCell id="XbBElfE76qs7gnHoQPAj-8" value="notificar resultados" style="ellipse;whiteSpace=wrap;html=1;" vertex="1" parent="1">
          <mxGeometry x="260" y="1120" width="140" height="70" as="geometry" />
        </mxCell>
        <mxCell id="XbBElfE76qs7gnHoQPAj-9" value="" style="fontColor=#0066CC;verticalAlign=top;verticalLabelPosition=bottom;labelPosition=center;align=center;html=1;outlineConnect=0;fillColor=#CCCCCC;strokeColor=#6881B3;gradientColor=none;gradientDirection=north;strokeWidth=2;shape=mxgraph.networks.video_projector_screen;" vertex="1" parent="1">
          <mxGeometry x="580" y="1130" width="80" height="100" as="geometry" />
        </mxCell>
        <mxCell id="XbBElfE76qs7gnHoQPAj-11" style="edgeStyle=orthogonalEdgeStyle;rounded=0;orthogonalLoop=1;jettySize=auto;html=1;exitX=1;exitY=0.5;exitDx=0;exitDy=0;entryX=0;entryY=0.08;entryDx=0;entryDy=0;entryPerimeter=0;" edge="1" parent="1" source="XbBElfE76qs7gnHoQPAj-8" target="XbBElfE76qs7gnHoQPAj-9">
          <mxGeometry relative="1" as="geometry" />
        </mxCell>
        <mxCell id="XbBElfE76qs7gnHoQPAj-13" value="reporte votaciones" style="ellipse;whiteSpace=wrap;html=1;" vertex="1" parent="1">
          <mxGeometry x="260" y="1230" width="140" height="70" as="geometry" />
        </mxCell>
        <mxCell id="XbBElfE76qs7gnHoQPAj-15" value="" style="html=1;verticalLabelPosition=bottom;align=center;labelBackgroundColor=#ffffff;verticalAlign=top;strokeWidth=2;strokeColor=#0080F0;shadow=0;dashed=0;shape=mxgraph.ios7.icons.documents;" vertex="1" parent="1">
          <mxGeometry x="570" y="1250" width="106" height="90" as="geometry" />
        </mxCell>
        <mxCell id="XbBElfE76qs7gnHoQPAj-16" style="edgeStyle=orthogonalEdgeStyle;rounded=0;orthogonalLoop=1;jettySize=auto;html=1;exitX=1;exitY=0.5;exitDx=0;exitDy=0;entryX=-0.004;entryY=0.492;entryDx=0;entryDy=0;entryPerimeter=0;" edge="1" parent="1" source="XbBElfE76qs7gnHoQPAj-13" target="XbBElfE76qs7gnHoQPAj-15">
          <mxGeometry relative="1" as="geometry" />
        </mxCell>
      </root>
    </mxGraphModel>
  </diagram>
</mxfile>
